<svg height="237" viewBox="0 0 233 237" width="233" xmlns="http://www.w3.org/2000/svg"><g fill="none" fill-rule="evenodd"><path d="m29.8346804 55.8954866 139.0105326-48.21174561c10.435875-3.61937845 21.829909 1.90648344 25.449287 12.34235801.346304.9985086.612917 2.0228959.797334 3.0635379l33.262255 187.6941531c1.927434 10.876231-5.327 21.25565-16.20323 23.183083-1.856086.328927-3.749353.393804-5.623602.192704l-186.4217444-20.002333c-10.98265716-1.178397-18.93058066-11.036879-17.75218397-22.019536.00781276-.072815.01602539-.145586.02463751-.218311l14.14895626-119.4800749c.9009882-7.6083452 6.0692339-14.0333647 13.307758-16.5438355z" fill="#232323"/><g fill-rule="nonzero"><path d="m189.609375 218c1.572917 0 2.75-.085938 3.53125-.257812.78125-.171876 1.4375-.473959 1.96875-.90625.53125-.432292.903646-1.03125 1.117187-1.796876.213542-.765624.320313-2.283854.320313-4.554687l-.000606-9.231107c-.007271-2.191049-.079986-3.673909-.218144-4.44858-.145833-.817709-.510417-1.559896-1.09375-2.226563s-1.434896-1.145833-2.554687-1.4375c-1.119792-.291667-3.26823-.4375-6.445313-.4375h-4.921875v25.296875zm-1.71875-4.328125v-16.640625c.71875 0 1.208333.075521 1.46875.226562.260417.151042.427083.388021.5.710938s.109375 1.057292.109375 2.203125v9.828125c0 1.6875-.109375 2.721354-.328125 3.101562-.21875.380209-.802083.570313-1.75.570313zm22.515625 4.328125v-5.0625h-4.828125v-5.5625h4.109375v-4.8125h-4.109375v-4.796875h4.390625v-5.0625h-10.96875v25.296875z" fill="#888"/><path d="m108.088 85.577c2.758 0 5.319.985 7.486 2.758 2.364 1.97 3.743 4.137 3.743 6.895 0 1.182-1.379 3.349-4.137 6.107-2.758 2.955-5.91 5.91-9.456 8.865-3.546 3.152-6.895 6.107-9.653 8.865-2.955 3.152-5.91 6.304-8.865 9.653l6.698 7.88c2.167 2.758 4.531 5.319 7.092 7.88 3.743 4.137 7.88 7.683 12.214 10.835 4.334 3.349 8.668 5.319 13.002 5.91-1.576 3.546-3.546 6.501-5.91 8.668-2.561 2.167-5.319 3.152-8.077 3.152-3.349 0-6.895-.788-10.835-2.758-3.94-1.773-7.486-4.531-10.638-8.471l-8.077-9.653c-2.758-2.955-5.319-5.91-7.683-9.062-1.97 2.561-3.743 5.122-5.319 7.486-1.773 2.364-3.349 4.728-4.925 7.092-2.364 3.546-4.531 6.895-6.501 10.244-2.167 3.546-4.728 8.077-7.486 13.396-11.032-2.167-16.351-6.304-16.351-12.608 0-1.576.985-4.334 3.349-7.88 2.167-3.349 6.304-8.668 12.411-15.76l13.002-15.957-6.895-8.077c-2.364-2.561-4.531-5.122-6.698-7.683l-3.349-3.349c-1.379-1.182-2.758-2.561-3.94-4.137l-1.97-1.97c-.591-.591-1.182-1.379-1.576-2.167-1.182-1.576-1.576-3.743-1.576-6.304 0-.985.197-1.97.985-3.152.591-.788 1.379-1.576 2.561-2.364.985-.788 2.167-1.379 3.546-1.97 1.182-.394 2.364-.591 3.546-.591 2.561 0 5.122.985 7.88 2.955 2.561 1.97 4.531 3.94 6.107 5.91 2.167 3.152 4.531 6.304 6.895 9.259 2.364 3.152 4.531 6.107 6.895 9.062 2.758-3.152 5.516-6.107 8.274-9.062l9.456-9.456c3.546-3.349 6.698-5.91 9.259-7.683 2.364-1.773 4.137-2.758 5.516-2.758zm50.629-38.218c2.167 0 4.137.394 6.107.985 1.773.788 3.546 1.576 5.319 2.758 3.152 2.758 4.728 5.91 4.728 9.653 0 3.546-1.182 6.304-3.546 8.274s-5.319 2.758-8.865 2.758c-4.334 0-7.88-1.182-11.032-3.546-3.743-2.561-5.516-5.91-5.516-9.85 0-3.152 1.182-5.713 3.743-7.88 2.758-1.97 5.713-3.152 9.062-3.152zm.394 128.641c1.379 0 2.955-.394 4.925-1.379 1.97-.788 3.152-2.167 3.94-4.137 1.182-2.561 1.97-5.122 1.97-7.486-.197-.197-.197-.394-.197-.788 0-.197-.197-.591-.197-.985-.197-.394-.197-.788-.197-1.182s-.197-.788-.197-1.379c-.591-1.773-.985-3.743-.985-5.91l-.197-6.895v-13.199c0-2.758 0-5.713.197-8.865 0-2.955.197-5.122.197-6.698v-2.364l.394-3.349.394-3.546c0-1.182.197-2.167.394-2.955.197-1.576.394-2.955.788-4.334 0-1.379.197-2.364.197-2.758 0-1.379-.788-2.758-1.97-4.137-1.379-1.182-2.758-2.167-4.137-2.955-2.364-1.182-4.925-1.97-7.289-1.97-1.182 0-2.561.197-3.94.591-1.576.394-2.758 1.182-3.546 2.167-.985 1.182-1.576 2.955-1.773 5.122-.394 2.364-.591 5.319-.591 9.062l-.394 39.794v17.139c0 1.576.197 3.349.985 4.925.591 1.576 1.576 3.152 3.152 4.334.394.394 1.379 1.182 3.152 2.364s3.349 1.773 4.925 1.773z" fill="#fff"/></g></g></svg>